<svg width="400" height="400" viewBox="0 0 400 400" fill="none" xmlns="http://www.w3.org/2000/svg">
<rect width="400" height="400" fill="white"/>
<path d="M309.014 212.507C309.576 273.04 362.117 293.184 362.7 293.441C362.255 294.862 354.304 322.148 335.018 350.332C318.347 374.699 301.043 398.977 273.786 399.48C247.002 399.974 238.39 383.598 207.769 383.598C177.158 383.598 167.589 398.977 142.235 399.974C115.925 400.969 95.8898 373.624 79.0794 349.346C44.7294 299.685 18.4789 209.016 53.7267 147.812C71.237 117.418 102.529 98.1717 136.494 97.6782C162.331 97.1854 186.717 115.06 202.511 115.06C218.295 115.06 247.93 93.5642 279.083 96.7211C292.125 97.2639 328.735 101.989 352.242 136.399C350.348 137.573 308.56 161.9 309.014 212.507ZM258.678 63.866C272.647 46.9578 282.048 23.42 279.483 0C259.349 0.809224 235.002 13.417 220.56 30.3159C207.617 45.2807 196.282 69.2328 199.34 92.1892C221.783 93.9256 244.709 80.7849 258.678 63.866Z" fill="black"/>
</svg>
