<svg width="643" height="176" viewBox="0 0 643 176" fill="none" xmlns="http://www.w3.org/2000/svg">
<g clip-path="url(#clip0_82_50)">
<path d="M73.65 69.3C73.65 69.3 72.8 68.8 71.1 67.8C69.4 66.8 67.15 65.7 64.35 64.5C61.55 63.2 58.5 62.05 55.2 61.05C51.9 60.05 48.65 59.55 45.45 59.55C42.95 59.55 40.9 59.95 39.3 60.75C37.7 61.55 36.9 62.9 36.9 64.8C36.9 66.6 37.7 68.05 39.3 69.15C40.9 70.25 43.15 71.25 46.05 72.15C49.05 73.05 52.6 74.15 56.7 75.45C63.3 77.45 69 79.75 73.8 82.35C78.6 84.95 82.3 88.3 84.9 92.4C87.5 96.4 88.8 101.75 88.8 108.45C88.8 114.85 87.65 120.25 85.35 124.65C83.05 128.95 79.95 132.4 76.05 135C72.15 137.6 67.8 139.5 63 140.7C58.2 141.8 53.3 142.35 48.3 142.35C43.2 142.35 37.85 141.85 32.25 140.85C26.75 139.75 21.4 138.3 16.2 136.5C11 134.6 6.25 132.4 1.95 129.9L14.55 104.25C14.55 104.25 15.55 104.85 17.55 106.05C19.55 107.25 22.2 108.6 25.5 110.1C28.8 111.6 32.45 112.95 36.45 114.15C40.55 115.35 44.65 115.95 48.75 115.95C51.95 115.95 54.15 115.55 55.35 114.75C56.65 113.85 57.3 112.7 57.3 111.3C57.3 109.2 56.2 107.6 54 106.5C51.8 105.3 48.9 104.2 45.3 103.2C41.8 102.1 37.9 100.85 33.6 99.45C27.4 97.35 22.3 95 18.3 92.4C14.3 89.7 11.35 86.55 9.45 82.95C7.55 79.25 6.6 74.8 6.6 69.6C6.6 61.7 8.45 55.1 12.15 49.8C15.85 44.5 20.7 40.5 26.7 37.8C32.8 35 39.35 33.6 46.35 33.6C51.55 33.6 56.55 34.25 61.35 35.55C66.25 36.75 70.8 38.25 75 40.05C79.3 41.85 83.05 43.55 86.25 45.15L73.65 69.3ZM149.728 141.9C141.628 141.9 134.278 140.4 127.678 137.4C121.078 134.3 115.378 130.2 110.578 125.1C105.878 119.9 102.228 114.1 99.6281 107.7C97.1281 101.2 95.8781 94.5 95.8781 87.6C95.8781 80.5 97.2281 73.75 99.9281 67.35C102.628 60.95 106.378 55.25 111.178 50.25C116.078 45.15 121.828 41.15 128.428 38.25C135.128 35.35 142.428 33.9 150.328 33.9C158.428 33.9 165.778 35.45 172.378 38.55C178.978 41.55 184.628 45.65 189.328 50.85C194.028 56.05 197.628 61.9 200.128 68.4C202.728 74.8 204.028 81.4 204.028 88.2C204.028 95.2 202.678 101.9 199.978 108.3C197.378 114.7 193.628 120.45 188.728 125.55C183.928 130.55 178.228 134.55 171.628 137.55C165.028 140.45 157.728 141.9 149.728 141.9ZM125.578 87.9C125.578 91.5 126.078 95 127.078 98.4C128.078 101.7 129.578 104.7 131.578 107.4C133.578 110 136.078 112.1 139.078 113.7C142.178 115.2 145.828 115.95 150.028 115.95C154.228 115.95 157.878 115.15 160.978 113.55C164.078 111.95 166.578 109.8 168.478 107.1C170.478 104.3 171.928 101.25 172.828 97.95C173.828 94.55 174.328 91.1 174.328 87.6C174.328 84 173.828 80.55 172.828 77.25C171.828 73.95 170.328 71 168.328 68.4C166.328 65.7 163.778 63.6 160.678 62.1C157.578 60.6 153.978 59.85 149.878 59.85C145.678 59.85 142.028 60.65 138.928 62.25C135.928 63.85 133.428 66 131.428 68.7C129.428 71.3 127.928 74.3 126.928 77.7C126.028 81 125.578 84.4 125.578 87.9ZM297.764 60H267.164V141H237.914V60H207.164V34.5H297.764V60ZM308.418 141V34.5H337.668V141H308.418ZM350.925 119.25L399.225 60H353.175V34.5H434.475V56.25L389.175 115.5H435.375V141H350.925V119.25ZM525.236 115.5V141H449.336V34.5H523.886V60H478.586V75H517.286V98.7H478.586V115.5H525.236ZM568.088 88.65V141H538.838V34.5H561.638L604.388 88.65V34.5H633.638V141H610.388L568.088 88.65Z" fill="#FFB800"/>
</g>
<defs>
<clipPath id="clip0_82_50">
<rect width="643" height="176" fill="white"/>
</clipPath>
</defs>
</svg>
